<svg version="1.1" viewBox="0.0 0.0 400.0 300.0" fill="none" stroke="none" stroke-linecap="square" stroke-miterlimit="10" xmlns:xlink="http://www.w3.org/1999/xlink" xmlns="http://www.w3.org/2000/svg"><clipPath id="p.0"><path d="m0 0l400.0 0l0 300.0l-400.0 0l0 -300.0z" clip-rule="nonzero"/></clipPath><g clip-path="url(#p.0)"><path fill="#000000" fill-opacity="0.0" d="m0 0l400.0 0l0 300.0l-400.0 0z" fill-rule="evenodd"/><path fill="#000000" fill-opacity="0.0" d="m0.013566142 30.96375l399.98376 0l0 167.06187l-399.98376 0z" fill-rule="evenodd"/><path fill="#000000" d="m68.83359 111.98375l-30.453125 0l0 35.5l-9.421873 0l0 -78.171875l9.421873 0l0 34.484375l30.453125 0l0 -34.484375l9.40625 0l0 78.171875l-9.40625 0l0 -35.5zm73.80937 35.5q-5.265625 0 -7.5 -2.6875q-2.234375 -2.6875 -2.796875 -6.71875l-0.5625 0q-1.90625 5.03125 -6.109375 7.890625q-4.203125 2.859375 -11.25 2.859375q-9.078125 0 -14.453125 -4.703125q-5.375 -4.703125 -5.375 -12.875q0 -8.0625 5.875 -12.4375q5.890625 -4.375 18.984375 -4.375l12.328125 0l0 -5.703125q0 -6.390625 -3.59375 -9.578125q-3.578125 -3.1875 -10.1875 -3.1875q-5.828125 0 -9.53125 2.296875q-3.6875 2.296875 -5.921875 6.203125l-6.046875 -4.46875q1.125 -2.25 3.015625 -4.375q1.90625 -2.125 4.703125 -3.75q2.8125 -1.625 6.390625 -2.578125q3.578125 -0.953125 7.953125 -0.953125q10.1875 0 16.171875 5.15625q6.0 5.15625 6.0 14.34375l0 31.796875l8.0625 0l0 7.84375l-6.15625 0zm-26.65625 -6.15625q3.46875 0 6.328125 -0.84375q2.859375 -0.84375 4.984375 -2.234375q2.125 -1.40625 3.296875 -3.359375q1.1875 -1.96875 1.1875 -4.203125l0 -9.515625l-12.328125 0q-8.0625 0 -11.765625 2.234375q-3.6875 2.234375 -3.6875 6.5l0 2.34375q0 4.484375 3.1875 6.78125q3.203125 2.296875 8.796875 2.296875z" fill-rule="nonzero"/><path fill="#000000" d="m232.17107 69.311874l0 57.90625q0 4.921875 -1.6875 8.953125q-1.671875 4.03125 -4.765625 6.828125q-3.078125 2.796875 -7.328125 4.3125q-4.25 1.515625 -9.296875 1.515625q-8.953125 0 -14.78125 -4.640625q-5.828125 -4.65625 -7.625 -13.0625l8.96875 -1.890625q0.5625 2.34375 1.515625 4.421875q0.953125 2.0625 2.5625 3.578125q1.625 1.515625 3.96875 2.421875q2.359375 0.890625 5.609375 0.890625q6.390625 0 9.921875 -3.640625q3.53125 -3.640625 3.53125 -11.375l0 -48.046875l-28.234375 0l0 -8.171875l37.640625 0zm68.87187 78.171875q-5.265625 0 -7.5 -2.6875q-2.234375 -2.6875 -2.796875 -6.71875l-0.5625 0q-1.90625 5.03125 -6.109375 7.890625q-4.203125 2.859375 -11.25 2.859375q-9.078125 0 -14.453125 -4.703125q-5.375 -4.703125 -5.375 -12.875q0 -8.0625 5.875 -12.4375q5.890625 -4.375 18.984375 -4.375l12.328125 0l0 -5.703125q0 -6.390625 -3.59375 -9.578125q-3.578125 -3.1875 -10.1875 -3.1875q-5.828125 0 -9.53125 2.296875q-3.6875 2.296875 -5.921875 6.203125l-6.046875 -4.46875q1.125 -2.25 3.015625 -4.375q1.90625 -2.125 4.703125 -3.75q2.8125 -1.625 6.390625 -2.578125q3.578125 -0.953125 7.953125 -0.953125q10.1875 0 16.171875 5.15625q6.0 5.15625 6.0 14.34375l0 31.796875l8.0625 0l0 7.84375l-6.15625 0zm-26.65625 -6.15625q3.46875 0 6.328125 -0.84375q2.859375 -0.84375 4.984375 -2.234375q2.125 -1.40625 3.296875 -3.359375q1.1875 -1.96875 1.1875 -4.203125l0 -9.515625l-12.328125 0q-8.0625 0 -11.765625 2.234375q-3.6875 2.234375 -3.6875 6.5l0 2.34375q0 4.484375 3.1875 6.78125q3.203125 2.296875 8.796875 2.296875zm73.02814 7.5q-6.265625 0 -11.25 -2.125q-4.984375 -2.125 -8.515625 -6.09375q-3.53125 -3.984375 -5.4375 -9.53125q-1.90625 -5.546875 -1.90625 -12.375q0 -6.953125 1.953125 -12.546875q1.96875 -5.59375 5.4375 -9.5625q3.484375 -3.984375 8.34375 -6.109375q4.875 -2.140625 10.8125 -2.140625q5.828125 0 10.578125 2.140625q4.765625 2.125 8.125 5.875q3.359375 3.75 5.15625 8.90625q1.796875 5.140625 1.796875 11.3125l0 4.25l-42.796875 0l0 2.6875q0 3.8125 1.234375 7.0625q1.234375 3.25 3.53125 5.609375q2.296875 2.34375 5.59375 3.625q3.3125 1.28125 7.34375 1.28125q5.828125 0 10.078125 -2.6875q4.25 -2.6875 6.5 -7.390625l6.609375 4.484375q-2.578125 5.828125 -8.578125 9.578125q-5.984375 3.75 -14.609375 3.75zm-0.5625 -53.09375q-3.6875 0 -6.828125 1.34375q-3.140625 1.34375 -5.4375 3.703125q-2.296875 2.34375 -3.59375 5.546875q-1.28125 3.1875 -1.28125 7.0l0 0.78125l33.15625 0l0 -1.234375q0 -3.8125 -1.171875 -6.9375q-1.171875 -3.140625 -3.25 -5.4375q-2.078125 -2.296875 -5.046875 -3.53125q-2.96875 -1.234375 -6.546875 -1.234375z" fill-rule="nonzero"/><path fill="#000000" fill-opacity="0.0" d="m210.16061 178.8084l178.64984 0l0 101.9019l-178.64984 0z" fill-rule="evenodd"/><path fill="#000000" d="m231.12549 214.6884l0 -19.546875l7.109375 0q2.71875 0 4.140625 1.484375q1.4375 1.484375 1.4375 4.140625q0 2.671875 -1.4375 4.15625q-1.421875 1.484375 -4.140625 1.484375l-4.75 0l0 8.28125l-2.359375 0zm2.359375 -10.328125l4.703125 0q1.484375 0 2.3125 -0.734375q0.828125 -0.75 0.828125 -2.125l0 -1.453125q0 -1.375 -0.828125 -2.109375q-0.828125 -0.75 -2.3125 -0.75l-4.703125 0l0 7.171875zm20.331314 10.671875q-1.515625 0 -2.734375 -0.53125q-1.21875 -0.546875 -2.078125 -1.53125q-0.84375 -1.0 -1.296875 -2.375q-0.453125 -1.390625 -0.453125 -3.125q0 -1.71875 0.453125 -3.109375q0.453125 -1.40625 1.296875 -2.390625q0.859375 -1.0 2.078125 -1.53125q1.21875 -0.53125 2.734375 -0.53125q1.5 0 2.7187653 0.53125q1.21875 0.53125 2.078125 1.53125q0.859375 0.984375 1.296875 2.390625q0.453125 1.390625 0.453125 3.109375q0 1.734375 -0.453125 3.125q-0.4375 1.375 -1.296875 2.375q-0.859375 0.984375 -2.078125 1.53125q-1.2187653 0.53125 -2.7187653 0.53125zm0 -1.9375q1.875 0 3.0156403 -1.125q1.15625 -1.125 1.15625 -3.46875l0 -2.078125q0 -2.34375 -1.15625 -3.46875q-1.1406403 -1.125 -3.0156403 -1.125q-1.875 0 -3.03125 1.125q-1.140625 1.125 -1.140625 3.46875l0 2.078125q0 2.34375 1.140625 3.46875q1.15625 1.125 3.03125 1.125zm10.550064 -0.3125l4.234375 0l0 -10.640625l-4.234375 0l0 -1.90625l6.46875 0l0 3.640625l0.140625 0q0.453125 -1.703125 1.6875 -2.671875q1.25 -0.96875 3.1875 -0.96875l2.015625 0l0 2.25l-2.71875 0q-1.9375 0 -3.125 1.125q-1.1875 1.109375 -1.1875 2.9375l0 6.234375l5.59375 0l0 1.90625l-12.0625 0l0 -1.90625zm23.73758 1.90625q-1.640625 0 -2.421875 -0.921875q-0.765625 -0.921875 -0.765625 -2.375l0 -9.25l-4.8125 0l0 -1.90625l3.578125 0q0.734375 0 1.015625 -0.28125q0.296875 -0.296875 0.296875 -1.03125l0 -3.78125l2.15625 0l0 5.09375l6.59375 0l0 1.90625l-6.59375 0l0 10.640625l6.59375 0l0 1.90625l-5.640625 0zm10.221924 0l0 -19.546875l12.328125 0l0 2.046875l-9.96875 0l0 6.578125l9.125 0l0 2.046875l-9.125 0l0 8.875l-2.359375 0zm22.690704 0.34375q-1.515625 0 -2.734375 -0.53125q-1.21875 -0.546875 -2.078125 -1.53125q-0.84375 -1.0 -1.296875 -2.375q-0.453125 -1.390625 -0.453125 -3.125q0 -1.71875 0.453125 -3.109375q0.453125 -1.40625 1.296875 -2.390625q0.859375 -1.0 2.078125 -1.53125q1.21875 -0.53125 2.734375 -0.53125q1.5 0 2.71875 0.53125q1.21875 0.53125 2.078125 1.53125q0.859375 0.984375 1.296875 2.390625q0.453125 1.390625 0.453125 3.109375q0 1.734375 -0.453125 3.125q-0.4375 1.375 -1.296875 2.375q-0.859375 0.984375 -2.078125 1.53125q-1.21875 0.53125 -2.71875 0.53125zm0 -1.9375q1.875 0 3.015625 -1.125q1.15625 -1.125 1.15625 -3.46875l0 -2.078125q0 -2.34375 -1.15625 -3.46875q-1.140625 -1.125 -3.015625 -1.125q-1.875 0 -3.03125 1.125q-1.140625 1.125 -1.140625 3.46875l0 2.078125q0 2.34375 1.140625 3.46875q1.15625 1.125 3.03125 1.125zm11.753174 1.59375l0 -19.546875l2.359375 0l0 17.5l9.265625 0l0 2.046875l-11.625 0zm22.73758 -17.640625q-0.984375 0 -1.375 -0.40625q-0.390625 -0.40625 -0.390625 -1.015625l0 -0.453125q0 -0.609375 0.390625 -1.015625q0.390625 -0.40625 1.375 -0.40625q0.984375 0 1.375 0.40625q0.390625 0.40625 0.390625 1.015625l0 0.453125q0 0.609375 -0.390625 1.015625q-0.390625 0.40625 -1.375 0.40625zm-6.328125 15.734375l5.203125 0l0 -10.640625l-5.203125 0l0 -1.90625l7.453125 0l0 12.546875l4.859375 0l0 1.90625l-12.3125 0l0 -1.90625zm22.237549 2.25q-1.515625 0 -2.734375 -0.53125q-1.21875 -0.546875 -2.078125 -1.53125q-0.84375 -1.0 -1.296875 -2.375q-0.453125 -1.390625 -0.453125 -3.125q0 -1.71875 0.453125 -3.109375q0.453125 -1.40625 1.296875 -2.390625q0.859375 -1.0 2.078125 -1.53125q1.21875 -0.53125 2.734375 -0.53125q1.5 0 2.71875 0.53125q1.21875 0.53125 2.078125 1.53125q0.859375 0.984375 1.296875 2.390625q0.453125 1.390625 0.453125 3.109375q0 1.734375 -0.453125 3.125q-0.4375 1.375 -1.296875 2.375q-0.859375 0.984375 -2.078125 1.53125q-1.21875 0.53125 -2.71875 0.53125zm0 -1.9375q1.875 0 3.015625 -1.125q1.15625 -1.125 1.15625 -3.46875l0 -2.078125q0 -2.34375 -1.15625 -3.46875q-1.140625 -1.125 -3.015625 -1.125q-1.875 0 -3.03125 1.125q-1.140625 1.125 -1.140625 3.46875l0 2.078125q0 2.34375 1.140625 3.46875q1.15625 1.125 3.03125 1.125z" fill-rule="nonzero"/><path fill="#000000" fill-opacity="0.0" d="m13.706037 178.8084l375.1047 0" fill-rule="evenodd"/><path stroke="#595959" stroke-width="1.0" stroke-linejoin="round" stroke-linecap="butt" d="m13.706037 178.8084l375.1047 0" fill-rule="evenodd"/></g></svg>